HIERARCHY
ROOT joint_Root
{
	OFFSET 0.0 0.0 0.0
	CHANNELS 6 Xposition Yposition Zposition Zrotation Xrotation Yrotation 
	JOINT Hips
	{
		OFFSET 4.5925 91.4895 -427.239
		CHANNELS 6 Xposition Yposition Zposition Zrotation Xrotation Yrotation 
		JOINT Spine
		{
			OFFSET 15.7357 0.0 0.0
			CHANNELS 6 Xposition Yposition Zposition Zrotation Xrotation Yrotation 
			JOINT Chest
			{
				OFFSET 8.98455 -0.406207 0.0
				CHANNELS 6 Xposition Yposition Zposition Zrotation Xrotation Yrotation 
				JOINT Neck
				{
					OFFSET 16.3773 0.0 0.0
					CHANNELS 6 Xposition Yposition Zposition Zrotation Xrotation Yrotation 
					JOINT Head
					{
						OFFSET 6.45672 0.0 0.0
						CHANNELS 6 Xposition Yposition Zposition Zrotation Xrotation Yrotation 
						End Site
						{
							OFFSET 0.0 0.0 0.0
						}
					}
				}
				JOINT Shoulder_L
				{
					OFFSET 12.9942 -0.242716 4.98039
					CHANNELS 6 Xposition Yposition Zposition Zrotation Xrotation Yrotation 
					JOINT UpperArm_L
					{
						OFFSET 5.34809 0.0 0.0
						CHANNELS 6 Xposition Yposition Zposition Zrotation Xrotation Yrotation 
						JOINT LowerArm_L
						{
							OFFSET 24.3286 1.87007e-05 0.0
							CHANNELS 6 Xposition Yposition Zposition Zrotation Xrotation Yrotation 
							JOINT Hand_L
							{
								OFFSET 22.2916 0.0 0.0
								CHANNELS 6 Xposition Yposition Zposition Zrotation Xrotation Yrotation 
								End Site
								{
									OFFSET 0.0 0.0 0.0
								}
							}
						}
					}
				}
				JOINT Shoulder_R
				{
					OFFSET 12.9945 -0.242716 -4.98039
					CHANNELS 6 Xposition Yposition Zposition Zrotation Xrotation Yrotation 
					JOINT UpperArm_R
					{
						OFFSET -5.34813 0.0 0.0
						CHANNELS 6 Xposition Yposition Zposition Zrotation Xrotation Yrotation 
						JOINT LowerArm_R
						{
							OFFSET -24.3289 0.000322201 0.0
							CHANNELS 6 Xposition Yposition Zposition Zrotation Xrotation Yrotation 
							JOINT Hand_R
							{
								OFFSET -22.2915 -0.000108084 0.0
								CHANNELS 6 Xposition Yposition Zposition Zrotation Xrotation Yrotation 
								End Site
								{
									OFFSET 0.0 0.0 0.0
								}
							}
						}
					}
				}
			}
		}
		JOINT UpperLeg_L
		{
			OFFSET -2.19248 -6.46944 0.0
			CHANNELS 6 Xposition Yposition Zposition Zrotation Xrotation Yrotation 
			JOINT LowerLeg_L
			{
				OFFSET 39.0811 0.0 -1.23785e-05
				CHANNELS 6 Xposition Yposition Zposition Zrotation Xrotation Yrotation 
				JOINT Foot_L
				{
					OFFSET 40.9854 0.0 -1.26872e-05
					CHANNELS 6 Xposition Yposition Zposition Zrotation Xrotation Yrotation 
					JOINT Toes_L
					{
						OFFSET 11.7543 0.0 0.0
						CHANNELS 6 Xposition Yposition Zposition Zrotation Xrotation Yrotation 
						End Site
						{
							OFFSET 0.0 0.0 0.0
						}
					}
				}
			}
		}
		JOINT UpperLeg_R
		{
			OFFSET -2.19251 6.46944 0.0
			CHANNELS 6 Xposition Yposition Zposition Zrotation Xrotation Yrotation 
			JOINT LowerLeg_R
			{
				OFFSET -39.0811 -0.00228153 -0.0401928
				CHANNELS 6 Xposition Yposition Zposition Zrotation Xrotation Yrotation 
				JOINT Foot_R
				{
					OFFSET -40.9854 0.0 0.0
					CHANNELS 6 Xposition Yposition Zposition Zrotation Xrotation Yrotation 
					JOINT Toes_R
					{
						OFFSET -11.7543 0.0 0.0
						CHANNELS 6 Xposition Yposition Zposition Zrotation Xrotation Yrotation 
						End Site
						{
							OFFSET 0.0 0.0 0.0
						}
					}
				}
			}
		}
	}
}
MOTION
Frames:	9
Frame Time:	0.0333333
0.000000 0.000000 0.000000 0.000000 0.000000 -0.000000 131.289000 89.704700 148.047000 90.677700 -43.000800 -0.423969 15.735700 0.000005 -0.000001 83.254000 81.424400 -84.033600 8.984550 -0.406207 -0.000000 9.257280 -2.013710 -1.394860 16.377300 -0.000001 -0.000001 1.584880 -15.205800 3.865800 6.456720 -0.000001 -0.000000 -0.990029 -19.461200 9.369730 12.994200 -0.242716 4.980390 -90.713600 2.353850 -73.129900 5.348090 -0.000007 -0.000001 -70.069700 33.173100 -7.811130 24.328600 0.000019 0.000005 7.481590 19.113700 -21.853800 22.291600 -0.000001 0.000005 10.081100 5.206490 2.556240 12.994500 -0.242716 -4.980390 88.277600 8.568040 -78.588500 -5.348130 -0.000001 -0.000004 -61.326500 28.653400 -16.710200 -24.328900 0.000322 -0.000009 -1.949130 -2.786600 -34.977300 -22.291500 -0.000108 -0.000004 17.067400 5.436450 -4.161980 -2.192480 -6.469440 -0.000000 -169.694000 -2.064740 -23.737100 39.081100 -0.000007 -0.000012 -0.129595 0.300912 23.300400 40.985400 -0.000006 -0.000013 -10.087400 7.487870 -56.481500 11.754300 -0.000000 0.000003 -0.003654 -0.047803 -18.521100 -2.192510 6.469440 -0.000001 -178.317000 0.863602 171.162000 -39.081100 -0.002282 -0.040193 0.020654 -0.024005 35.882300 -40.985400 0.000008 0.000006 15.162400 10.001300 -75.551400 -11.754300 -0.000006 -0.000006 -2.084210 -2.437180 -20.095200
0.000000 0.000000 0.000000 0.000000 0.000000 -0.000000 130.905000 89.443800 150.518000 91.435800 -45.045100 -0.120641 15.735700 0.000005 -0.000001 81.954500 81.386700 -83.109900 8.984550 -0.406207 -0.000000 9.273690 -2.412860 -2.113310 16.377300 -0.000001 -0.000001 1.571440 -14.845000 3.816140 6.456720 -0.000001 -0.000000 -1.251380 -19.128300 9.455370 12.994200 -0.242716 4.980390 -90.760800 2.525780 -73.231200 5.348090 -0.000007 -0.000001 -69.578000 33.612300 -8.110420 24.328600 0.000019 0.000005 7.243950 19.540300 -20.808300 22.291600 -0.000001 0.000005 9.564200 5.197110 2.791850 12.994500 -0.242716 -4.980390 88.237700 8.950530 -78.813500 -5.348130 -0.000001 -0.000004 -61.391500 28.610300 -16.984800 -24.328900 0.000322 -0.000009 -1.918200 -2.826920 -34.164500 -22.291500 -0.000108 -0.000004 17.205800 5.436460 -4.162360 -2.192480 -6.469440 -0.000000 -171.864000 -5.499240 -24.899600 39.081100 -0.000007 -0.000012 -0.111061 0.237158 25.093800 40.985400 -0.000006 -0.000013 -8.308900 10.998000 -52.901500 11.754300 -0.000000 0.000003 -0.003513 -0.046284 -18.459300 -2.192510 6.469440 -0.000001 179.992000 -0.521738 171.242000 -39.081100 -0.002282 -0.040193 0.020382 -0.022169 37.639800 -40.985400 0.000008 0.000006 14.798400 10.646900 -75.947600 -11.754300 -0.000006 -0.000006 -2.241090 -2.550030 -21.151200
0.000000 0.000000 0.000000 0.000000 0.000000 -0.000000 130.344000 89.044700 153.239000 92.019200 -47.220500 0.386724 15.735700 0.000005 -0.000001 81.223800 81.345600 -82.639000 8.984550 -0.406207 -0.000000 9.316190 -2.645260 -2.612820 16.377300 -0.000001 -0.000001 1.649290 -14.620500 3.682820 6.456720 -0.000001 -0.000000 -1.345840 -18.886100 9.201090 12.994200 -0.242716 4.980390 -90.824600 2.732590 -73.200900 5.348090 -0.000007 -0.000001 -68.925400 33.989700 -8.930360 24.328600 0.000019 0.000005 7.173320 20.225100 -20.004100 22.291600 -0.000001 0.000005 9.332290 5.181780 3.172250 12.994500 -0.242716 -4.980390 88.197700 9.185960 -78.849700 -5.348130 -0.000001 -0.000004 -61.254200 28.982400 -16.765200 -24.328900 0.000322 -0.000009 -1.827930 -2.781280 -33.317000 -22.291500 -0.000108 -0.000004 17.111100 5.438080 -4.218650 -2.192480 -6.469440 -0.000000 -172.768000 -5.997960 -25.612500 39.081100 -0.000007 -0.000012 -0.125908 0.216001 30.238300 40.985400 -0.000006 -0.000013 -7.003090 9.743090 -55.424100 11.754300 -0.000000 0.000003 -0.000143 -0.002381 -16.674200 -2.192510 6.469440 -0.000001 178.424000 -2.093670 171.197000 -39.081100 -0.002282 -0.040193 0.022948 -0.023057 40.469000 -40.985400 0.000008 0.000006 14.464300 10.973100 -76.515300 -11.754300 -0.000006 -0.000006 -0.135599 -0.248778 -21.639800
0.000000 0.000000 0.000000 0.000000 0.000000 -0.000000 129.636000 88.751900 155.777000 92.054400 -49.045700 0.884435 15.735700 0.000005 -0.000001 80.982700 81.123500 -82.574100 8.984550 -0.406207 -0.000000 9.739130 -2.793080 -2.942890 16.377300 -0.000001 -0.000001 1.512270 -14.632200 3.373320 6.456720 -0.000001 -0.000000 -1.101970 -18.769000 9.502220 12.994200 -0.242716 4.980390 -90.837000 2.814200 -73.428600 5.348090 -0.000007 -0.000001 -67.634000 33.949800 -10.607800 24.328600 0.000019 0.000005 7.040120 20.273300 -19.616300 22.291600 -0.000001 0.000005 9.464550 5.164570 3.592590 12.994500 -0.242716 -4.980390 88.060800 9.802510 -78.752500 -5.348130 -0.000001 -0.000004 -61.276300 29.022300 -15.944500 -24.328900 0.000322 -0.000009 -1.563390 -2.453900 -32.496900 -22.291500 -0.000108 -0.000004 17.129700 5.440760 -4.312340 -2.192480 -6.469440 -0.000000 -173.257000 -6.730490 -25.355300 39.081100 -0.000007 -0.000012 -0.137833 0.200655 34.486000 40.985400 -0.000006 -0.000013 -5.874500 9.235790 -59.450600 11.754300 -0.000000 0.000003 -0.000079 -0.000837 -16.609800 -2.192510 6.469440 -0.000001 177.504000 -3.240040 170.207000 -39.081100 -0.002282 -0.040193 0.032691 -0.029326 45.098300 -40.985400 0.000008 0.000006 14.378300 11.475900 -74.720400 -11.754300 -0.000006 -0.000006 -0.033796 -0.234363 -26.184200
0.000000 0.000000 0.000000 0.000000 0.000000 -0.000000 128.787000 88.597500 158.166000 91.233600 -51.211700 1.379020 15.735700 0.000005 -0.000001 82.111400 80.683000 -83.743500 8.984550 -0.406207 -0.000000 10.664500 -2.580570 -3.021740 16.377300 -0.000001 -0.000001 1.540830 -14.343100 2.946210 6.456720 -0.000001 -0.000000 -1.116540 -18.673900 9.457400 12.994200 -0.242716 4.980390 -90.779100 2.631600 -73.502300 5.348090 -0.000007 -0.000001 -65.618100 33.945100 -13.384400 24.328600 0.000019 0.000005 6.698400 19.443900 -19.433300 22.291600 -0.000001 0.000005 9.653980 5.161610 3.664020 12.994500 -0.242716 -4.980390 88.109500 9.889940 -79.122000 -5.348130 -0.000001 -0.000004 -62.470900 28.916000 -14.400500 -24.328900 0.000322 -0.000009 -1.492220 -2.427900 -31.570100 -22.291500 -0.000108 -0.000004 17.802000 5.441380 -4.334210 -2.192480 -6.469440 -0.000000 -172.992000 -6.904570 -23.675900 39.081100 -0.000007 -0.000012 -0.161055 0.209887 37.500900 40.985400 -0.000006 -0.000013 -5.226320 7.734810 -63.026500 11.754300 -0.000000 0.000003 -0.000204 -0.001886 -16.648600 -2.192510 6.469440 -0.000001 177.004000 -3.518090 168.329000 -39.081100 -0.002282 -0.040193 0.055868 -0.042120 51.327000 -40.985400 0.000008 0.000006 13.638400 13.674900 -70.244600 -11.754300 -0.000006 -0.000006 -0.066241 -0.351542 -31.114900
0.000000 0.000000 0.000000 0.000000 0.000000 -0.000000 128.037000 88.574000 160.365000 90.629500 -53.969000 1.452760 15.735700 0.000005 -0.000001 83.317500 80.518200 -85.006400 8.984550 -0.406207 -0.000000 11.043900 -2.238380 -3.160130 16.377300 -0.000001 -0.000001 1.637800 -13.743600 2.466930 6.456720 -0.000001 -0.000000 -1.196110 -18.062700 8.637190 12.994200 -0.242716 4.980390 -90.820900 2.742500 -73.329400 5.348090 -0.000007 -0.000001 -63.321600 32.886300 -15.791700 24.328600 0.000019 0.000005 7.025450 19.006600 -20.726500 22.291600 -0.000001 0.000005 9.895650 5.149630 3.952150 12.994500 -0.242716 -4.980390 88.170000 9.769460 -79.336500 -5.348130 -0.000001 -0.000004 -63.303900 29.929600 -13.593800 -24.328900 0.000322 -0.000009 -1.360110 -2.392460 -29.608200 -22.291500 -0.000108 -0.000004 17.397000 5.433470 -4.055090 -2.192480 -6.469440 -0.000000 -173.095000 -8.726530 -21.950200 39.081100 -0.000007 -0.000012 -0.185793 0.227744 39.207900 40.985400 -0.000006 -0.000013 -4.450410 6.983120 -65.756200 11.754300 -0.000000 0.000003 -0.000315 -0.002707 -16.678200 -2.192510 6.469440 -0.000001 176.088000 -3.677810 164.592000 -39.081100 -0.002282 -0.040193 0.096589 -0.058202 58.064600 -40.985400 0.000008 0.000006 8.571530 15.996100 -63.717000 -11.754300 -0.000006 -0.000006 -0.057760 -0.324425 -29.963000
0.000000 0.000000 0.000000 0.000000 0.000000 -0.000000 127.162000 88.656700 162.244000 89.781600 -56.118900 1.032650 15.735700 0.000005 -0.000001 83.203300 80.482600 -84.840300 8.984550 -0.406207 -0.000000 11.110600 -2.283280 -3.050790 16.377300 -0.000001 -0.000001 1.619480 -13.199700 1.991430 6.456720 -0.000001 -0.000000 -1.101540 -17.198600 7.787700 12.994200 -0.242716 4.980390 -90.904500 3.008390 -73.257600 5.348090 -0.000007 -0.000001 -61.308000 30.700300 -17.446000 24.328600 0.000019 0.000005 7.467810 18.075000 -22.904100 22.291600 -0.000001 0.000005 11.166800 5.144900 4.065710 12.994500 -0.242716 -4.980390 88.135200 9.963700 -79.343100 -5.348130 -0.000001 -0.000004 -63.670400 31.273900 -12.829900 -24.328900 0.000322 -0.000009 -0.582872 -1.106990 -27.713800 -22.291500 -0.000108 -0.000004 15.932600 5.413820 -3.390570 -2.192480 -6.469440 -0.000000 -172.959000 -9.543270 -20.195600 39.081100 -0.000007 -0.000012 -0.218691 0.261522 39.903700 40.985400 -0.000006 -0.000013 -4.156590 5.737920 -67.856300 11.754300 -0.000000 0.000003 -0.000383 -0.003191 -16.695400 -2.192510 6.469440 -0.000001 175.574000 -2.280750 160.637000 -39.081100 -0.002282 -0.040193 0.182611 -0.088993 63.620300 -40.985400 0.000008 0.000006 -0.199805 15.047700 -56.124400 -11.754300 -0.000006 -0.000006 -0.030911 -0.221610 -25.654200
0.000000 0.000000 0.000000 0.000000 0.000000 -0.000000 126.134000 88.745700 163.811000 88.735300 -57.954100 0.189228 15.735700 0.000005 -0.000001 82.623500 80.522700 -84.152000 8.984550 -0.406207 -0.000000 11.007900 -2.458530 -2.818860 16.377300 -0.000001 -0.000001 1.554260 -12.666300 1.649210 6.456720 -0.000001 -0.000000 -1.215640 -16.324000 7.257370 12.994200 -0.242716 4.980390 -90.918200 3.069750 -73.339300 5.348090 -0.000007 -0.000001 -59.911100 27.843300 -18.590700 24.328600 0.000019 0.000005 7.277550 15.720900 -25.236300 22.291600 -0.000001 0.000005 13.045800 5.154540 3.836470 12.994500 -0.242716 -4.980390 88.090600 10.117900 -79.255000 -5.348130 -0.000001 -0.000004 -64.414900 32.016000 -11.587500 -24.328900 0.000322 -0.000009 0.492768 0.992697 -26.456900 -22.291500 -0.000108 -0.000004 14.505100 5.399040 -2.905240 -2.192480 -6.469440 -0.000000 -172.634000 -10.825700 -18.573900 39.081100 -0.000007 -0.000012 -0.234107 0.277361 40.166700 40.985400 -0.000006 -0.000013 -3.883830 5.227410 -69.574600 11.754300 -0.000000 0.000003 -0.000430 -0.003511 -16.706700 -2.192510 6.469440 -0.000001 176.032000 0.902189 157.579000 -39.081100 -0.002282 -0.040193 0.267134 -0.109730 67.429500 -40.985400 0.000008 0.000006 -4.467050 10.921100 -52.054800 -11.754300 -0.000006 -0.000006 -0.012702 -0.122827 -21.581200
0.000000 0.000000 0.000000 0.000000 0.000000 -0.000000 125.001000 89.062400 165.179000 87.623800 -59.690800 -0.911217 15.735700 0.000005 -0.000001 82.112800 80.627100 -83.512300 8.984550 -0.406207 -0.000000 10.780000 -2.590560 -2.553380 16.377300 -0.000001 -0.000001 1.403300 -12.154400 1.429170 6.456720 -0.000001 -0.000000 -1.328060 -15.543100 7.024710 12.994200 -0.242716 4.980390 -90.848800 2.859160 -73.458800 5.348090 -0.000007 -0.000001 -59.048900 24.859500 -19.637900 24.328600 0.000019 0.000005 6.671070 13.131000 -27.242200 22.291600 -0.000001 0.000005 14.673600 5.173340 3.379250 12.994500 -0.242716 -4.980390 88.069200 10.129700 -79.149300 -5.348130 -0.000001 -0.000004 -65.458700 32.254500 -10.034400 -24.328900 0.000322 -0.000009 0.940154 1.966080 -25.587700 -22.291500 -0.000108 -0.000004 13.870700 5.391860 -2.674730 -2.192480 -6.469440 -0.000000 -172.231000 -12.155500 -16.511400 39.081100 -0.000007 -0.000012 -0.243185 0.298931 39.129400 40.985400 -0.000006 -0.000013 -3.804660 4.764220 -70.583000 11.754300 -0.000000 0.000003 -0.000497 -0.003963 -16.722500 -2.192510 6.469440 -0.000001 177.575000 5.042700 156.245000 -39.081100 -0.002282 -0.040193 0.251206 -0.100167 68.012000 -40.985400 0.000008 0.000006 -0.459491 6.350770 -57.016400 -11.754300 -0.000006 -0.000006 -0.013886 -0.130683 -21.903300
